<svg width="111" height="31" viewBox="0 0 111 31" fill="none" xmlns="http://www.w3.org/2000/svg">
<g clip-path="url(#clip0)">
<path d="M15.5122 0C11.3981 0 7.45254 1.62846 4.54343 4.52713C1.63432 7.42581 0 11.3573 0 15.4566H31.0245C31.0245 11.3573 29.3902 7.42581 26.4811 4.52713C23.572 1.62846 19.6264 0 15.5122 0V0ZM6.43077 11.0267C7.50412 8.4444 11.0011 5.27 15.5122 5.3599C19.6905 5.4405 22.7457 7.5299 24.6435 11.0267H6.43077Z" fill="#767683"/>
<path d="M15.5124 25.5656C9.97644 25.5741 4.64193 23.4967 0.578857 19.75C1.49806 22.9909 3.45403 25.8442 6.14948 27.8761C8.84494 29.9081 12.1325 31.0076 15.5124 31.0076C18.8924 31.0076 22.1799 29.9081 24.8754 27.8761C27.5708 25.8442 29.5268 22.9909 30.446 19.75C26.3829 23.4967 21.0484 25.5741 15.5124 25.5656Z" fill="#767683"/>
<path d="M43.0459 18.6C42.551 19.0568 41.9763 19.4193 41.3503 19.6695C40.7271 19.9134 40.0629 20.0365 39.3934 20.0322C38.8086 20.055 38.2254 19.9566 37.6807 19.7431C37.1361 19.5297 36.6419 19.2059 36.2293 18.7922C35.8169 18.3696 35.4942 17.8685 35.2804 17.3188C35.0666 16.7692 34.9661 16.1822 34.9848 15.593C34.9342 14.3767 35.3515 13.1869 36.1515 12.2667C36.5262 11.8461 36.989 11.5126 37.5072 11.2898C38.0255 11.0669 38.5865 10.9602 39.1507 10.9771C39.7108 10.9511 40.2699 11.045 40.7905 11.2525C41.3111 11.46 41.781 11.7762 42.1685 12.1799C42.9173 12.9818 43.2916 14.0627 43.2916 15.4225V15.4721H36.7582V15.7821C36.7582 16.8382 37.0185 17.6649 37.5391 18.2621C37.813 18.5623 38.1506 18.7979 38.5273 18.9518C38.904 19.1057 39.3104 19.174 39.7169 19.1518C40.1891 19.1506 40.6568 19.0602 41.0952 18.8852C41.6218 18.657 42.1115 18.3519 42.5481 17.98L43.0459 18.6ZM36.8235 14.7188H41.5463V14.6165C41.5871 13.8511 41.3679 13.0943 40.924 12.4682C40.732 12.215 40.4817 12.0116 40.1942 11.8751C39.9066 11.7386 39.5903 11.673 39.272 11.6839C38.9408 11.6687 38.6106 11.7312 38.3079 11.8664C38.0053 12.0015 37.7388 12.2055 37.5298 12.462C37.1232 12.9849 36.892 13.7372 36.836 14.7188H36.8235Z" fill="white"/>
<path d="M52.2674 7.01538V17.9584C52.2478 18.0966 52.2564 18.2373 52.2928 18.3721C52.3292 18.5068 52.3925 18.6329 52.479 18.7427C52.62 18.8605 53.0566 18.9338 53.7888 18.9628V19.6696C53.1126 19.7026 52.5495 19.7471 52.0994 19.8029C51.7312 19.8429 51.367 19.9134 51.0105 20.0137L50.8674 18.3707C50.4969 18.883 50.0165 19.3066 49.4611 19.6107C48.9145 19.8809 48.3103 20.015 47.7002 20.0013C47.1753 20.0186 46.6531 19.9178 46.1727 19.7064C45.6922 19.4949 45.2658 19.1782 44.9251 18.7799C44.2199 17.9759 43.8673 16.9137 43.8673 15.5931C43.816 14.4067 44.2059 13.2432 44.9624 12.3257C45.3037 11.9189 45.7328 11.5942 46.2176 11.3757C46.7024 11.1573 47.2305 11.0507 47.7625 11.064C48.3378 11.0552 48.9064 11.1884 49.4176 11.4515C49.9564 11.7522 50.4234 12.1658 50.7865 12.6636V9.07688C50.7865 8.61188 50.689 8.32048 50.4941 8.20268C50.2991 8.08488 49.7495 8.01461 48.8451 7.99188V7.28508C49.3243 7.28508 49.8428 7.26028 50.4007 7.21068C50.9587 7.16108 51.5809 7.09598 52.2674 7.01538ZM50.7803 15.4598C50.8178 14.5476 50.5473 13.6493 50.0118 12.9085C49.7925 12.5965 49.5003 12.3424 49.1605 12.168C48.8207 11.9936 48.4434 11.9041 48.0611 11.9072C47.6942 11.9016 47.3323 11.9923 47.0117 12.1703C46.6911 12.3482 46.4232 12.6071 46.2349 12.9209C45.7848 13.5967 45.5598 14.5132 45.5598 15.6706C45.5128 16.5556 45.7516 17.4323 46.2411 18.1723C46.4427 18.4661 46.7148 18.7051 47.0326 18.8675C47.3505 19.0299 47.704 19.1106 48.0611 19.1023C48.4457 19.1061 48.8254 19.0157 49.1666 18.8389C49.5079 18.6621 49.8003 18.4045 50.018 18.0886C50.5558 17.3199 50.8238 16.3958 50.7803 15.4598Z" fill="white"/>
<path d="M60.7673 18.0111C60.3528 18.5868 59.8336 19.08 59.2366 19.465C58.731 19.7728 58.1491 19.9338 57.5566 19.93C57.0111 19.9381 56.4735 19.7988 56.001 19.527C55.5598 19.2797 55.2081 18.9 54.9961 18.442C54.8618 18.1533 54.7676 17.8477 54.7161 17.5337C54.6483 17.0116 54.6202 16.4852 54.6321 15.9589V12.9581C54.6321 12.5447 54.5688 12.2895 54.4423 12.1924C54.3158 12.0952 53.9227 12.0281 53.2632 11.9909V11.3089C53.8709 11.2799 54.4071 11.2376 54.8717 11.1818C55.2905 11.1332 55.7061 11.0597 56.1161 10.9617V16.7401C56.0896 17.3011 56.27 17.8524 56.6232 18.2901C56.7905 18.4785 56.9981 18.6271 57.2307 18.7248C57.4634 18.8224 57.7151 18.8667 57.9673 18.8543C58.3372 18.8526 58.702 18.7682 59.0348 18.6072C59.3676 18.4462 59.6598 18.2128 59.89 17.9243C60.4214 17.3268 60.7089 16.5525 60.6957 15.7543V12.9581C60.6957 12.5034 60.6294 12.2327 60.4966 12.1459C60.1289 12.0197 59.7399 11.967 59.3517 11.9909V11.3089L59.5788 11.2841C60.4518 11.2276 61.3211 11.1241 62.1829 10.9741V18.0266C62.1829 18.4585 62.269 18.7303 62.4411 18.8419C62.6133 18.9535 63.0343 19.0155 63.7042 19.0279V19.7347H63.4927C63.0986 19.7347 62.6744 19.7574 62.2202 19.8029C61.766 19.8483 61.2796 19.9186 60.7611 20.0137L60.7673 18.0111Z" fill="white"/>
<path d="M64.6966 21.2008V13.0199C64.6966 12.6066 64.6209 12.34 64.4695 12.2201C64.3181 12.1002 63.9033 12.0331 63.225 12.0186V11.3087C63.9406 11.2632 64.5462 11.2116 65.0419 11.1537C65.4092 11.1179 65.7732 11.0547 66.1309 10.9646V12.5983C66.5018 12.0887 66.9795 11.6656 67.5309 11.3583C68.0577 11.0922 68.6421 10.9591 69.2327 10.9708C69.7644 10.9569 70.2924 11.0629 70.7773 11.2808C71.2621 11.4988 71.6913 11.823 72.0327 12.2294C72.777 13.1311 73.1614 14.2746 73.1123 15.441C73.1607 16.611 72.7678 17.7567 72.011 18.6526C71.6686 19.0526 71.241 19.3715 70.7593 19.5861C70.2776 19.8006 69.7539 19.9053 69.2265 19.8926C68.647 19.9114 68.0719 19.7868 67.5527 19.5299C67.0138 19.2292 66.5467 18.8157 66.1837 18.3178V21.2132C66.1837 21.6782 66.2709 21.9655 66.4451 22.075C66.6193 22.1845 67.1658 22.2538 68.0847 22.2827V22.974H63.2095V22.2703C63.3277 22.2703 63.449 22.2651 63.5735 22.2548H63.6233C63.9173 22.2834 64.2122 22.2088 64.457 22.044C64.5522 21.9269 64.6225 21.7918 64.6636 21.6469C64.7048 21.5019 64.716 21.3502 64.6966 21.2008ZM66.1837 15.4999C66.1465 16.4134 66.4206 17.3127 66.9615 18.0512C67.1831 18.3631 67.477 18.617 67.8183 18.7914C68.1596 18.9657 68.5381 19.0553 68.9216 19.0525C69.2799 19.0568 69.6335 18.9703 69.9492 18.8011C70.2648 18.6319 70.5321 18.3856 70.726 18.0853C71.2189 17.3223 71.4593 16.4247 71.4136 15.5185C71.4136 14.4025 71.1865 13.5138 70.7323 12.8525C70.539 12.5443 70.2689 12.2913 69.9483 12.118C69.6277 11.9447 69.2676 11.8571 68.9029 11.8636C68.5189 11.8617 68.1402 11.9538 67.8001 12.1316C67.46 12.3094 67.1689 12.5676 66.9522 12.8835C66.4138 13.6475 66.1437 14.5672 66.1837 15.4999Z" fill="white"/>
<path d="M72.6055 19.7377V19.0278H72.9695C73.2924 19.0626 73.6182 18.9977 73.9028 18.8418C73.9898 18.7389 74.0544 18.619 74.0925 18.4899C74.1305 18.3607 74.1411 18.2251 74.1237 18.0916V9.06131C74.1237 8.63557 74.0397 8.36484 73.8717 8.24911C73.7037 8.13337 73.2816 8.07034 72.6055 8.06001V7.35941H72.7828C73.2219 7.35662 73.6604 7.3266 74.0957 7.26951C74.5665 7.20957 75.0747 7.12381 75.6202 7.01221V12.8712C76.0221 12.3174 76.5282 11.8468 77.1104 11.4855C77.6112 11.1927 78.1818 11.0396 78.7625 11.0422C79.257 11.0365 79.7456 11.1492 80.1874 11.3708C80.6061 11.573 80.958 11.8903 81.2016 12.2853C81.3819 12.5912 81.5082 12.9257 81.575 13.2742C81.6622 13.8434 81.6987 14.4191 81.6838 14.9947V18.0947C81.6838 18.508 81.7461 18.7674 81.8705 18.8728C82.1214 19.0054 82.4066 19.0595 82.6888 19.0278H83.0528V19.7346H78.8154V19.0278H79.1265C79.4202 19.0605 79.7164 18.9927 79.9665 18.8356C80.0504 18.7328 80.1127 18.6142 80.1495 18.4869C80.1864 18.3596 80.1972 18.2262 80.1812 18.0947V14.2383C80.2118 13.6793 80.0371 13.1283 79.6896 12.6883C79.5224 12.4998 79.3147 12.3513 79.0821 12.2536C78.8494 12.156 78.5977 12.1117 78.3456 12.1241C77.9757 12.1258 77.6108 12.2102 77.2781 12.3712C76.9453 12.5322 76.653 12.7655 76.4229 13.0541C75.8904 13.651 75.6027 14.4256 75.6171 15.2241V18.1195C75.6171 18.5328 75.6772 18.7912 75.7975 18.8945C75.9178 18.9978 76.2206 19.0516 76.706 19.0557H76.9767V19.7625L72.6055 19.7377Z" fill="white"/>
<path d="M83.1954 15.4751C83.1752 14.8827 83.2725 14.2922 83.4818 13.7374C83.6911 13.1825 84.0082 12.6743 84.415 12.2418C84.8164 11.8363 85.2947 11.5142 85.8222 11.2944C86.3496 11.0746 86.9156 10.9614 87.4872 10.9614C88.0589 10.9614 88.6249 11.0746 89.1523 11.2944C89.6797 11.5142 90.1581 11.8363 90.5595 12.2418C90.9683 12.678 91.2866 13.1904 91.4959 13.7495C91.7052 14.3087 91.8014 14.9036 91.7791 15.4999C91.7999 16.0938 91.7028 16.6859 91.4936 17.2423C91.2843 17.7987 90.9669 18.3085 90.5595 18.7425C90.1585 19.1488 89.6803 19.4715 89.1528 19.6918C88.6254 19.9121 88.0592 20.0256 87.4872 20.0256C86.9153 20.0256 86.3491 19.9121 85.8217 19.6918C85.2942 19.4715 84.816 19.1488 84.415 18.7425C84.0057 18.3048 83.6873 17.7908 83.478 17.2301C83.2687 16.6693 83.1727 16.0729 83.1954 15.4751ZM84.9439 15.4751C84.9439 16.6986 85.1637 17.6431 85.6034 18.3085C85.8127 18.6141 86.0937 18.8642 86.422 19.037C86.7503 19.2099 87.1159 19.3002 87.4872 19.3002C87.8585 19.3002 88.2242 19.2099 88.5525 19.037C88.8808 18.8642 89.1618 18.6141 89.3711 18.3085C89.8108 17.6513 90.0306 16.7079 90.0306 15.4782C90.0306 14.2486 89.8097 13.3093 89.3679 12.6603C89.1577 12.3566 88.8765 12.1083 88.5486 11.9368C88.2208 11.7653 87.856 11.6757 87.4857 11.6757C87.1154 11.6757 86.7506 11.7653 86.4227 11.9368C86.0949 12.1083 85.8137 12.3566 85.6034 12.6603C85.1575 13.3134 84.9345 14.2517 84.9345 15.4751H84.9439Z" fill="white"/>
<path d="M91.7792 19.7376V19.0277H92.2428C92.5421 19.061 92.8441 18.9945 93.1015 18.8386C93.1834 18.742 93.2447 18.6298 93.2816 18.5088C93.3185 18.3878 93.3302 18.2606 93.3161 18.1349V13.3547C93.3161 12.7347 93.23 12.3575 93.0579 12.2232C92.8857 12.0889 92.4419 12.0176 91.7263 12.0093V11.3087C92.1487 11.3074 92.5706 11.2794 92.9895 11.225C93.4312 11.1692 93.928 11.0824 94.4797 10.9646L94.5481 12.9083C94.7729 12.3784 95.1269 11.9127 95.5779 11.5536C95.9766 11.2457 96.4673 11.0798 96.9717 11.0824C97.4286 11.0636 97.8749 11.2225 98.2162 11.5257C98.3744 11.67 98.4994 11.8466 98.5826 12.0435C98.6658 12.2404 98.7053 12.4529 98.6984 12.6665C98.7026 12.7971 98.6799 12.9272 98.6318 13.0487C98.5836 13.1703 98.511 13.2807 98.4184 13.3733C98.327 13.4648 98.2177 13.5368 98.0973 13.5848C97.977 13.6328 97.848 13.6557 97.7184 13.6523C97.4839 13.661 97.2541 13.5851 97.0713 13.4384C96.9894 13.3738 96.9235 13.2912 96.8787 13.1971C96.8339 13.1031 96.8115 13 96.8131 12.8959C96.8196 12.735 96.861 12.5774 96.9344 12.434C96.9968 12.327 97.0419 12.2109 97.0682 12.0899C97.0667 12.0544 97.0551 12.0201 97.0347 11.991C97.0143 11.9619 96.986 11.9392 96.9531 11.9256C96.8656 11.8812 96.7681 11.8599 96.67 11.8636C96.1182 11.8636 95.6692 12.1622 95.3228 12.7595C94.9434 13.4996 94.7643 14.3256 94.8033 15.1558V18.1287C94.7718 18.3824 94.8385 18.6385 94.9899 18.8448C95.1144 18.9626 95.4722 19.0215 96.0633 19.0215H96.1131C96.2375 19.0112 96.3526 19.006 96.4584 19.006V19.7314L91.7792 19.7376Z" fill="white"/>
<path d="M98.3499 19.7376V19.0277H98.7481C99.3123 19.0277 99.6732 18.9678 99.8308 18.8479C99.9233 18.7473 99.9924 18.6277 100.033 18.4975C100.074 18.3673 100.086 18.2298 100.067 18.0946V13.0199C100.067 12.6066 99.9636 12.3348 99.7562 12.2046C99.5602 12.0806 98.3592 11.7861 97.2392 13.5655L97.1895 12.5177C98.1415 11.3862 98.9753 11.1506 99.4824 11.0948C99.9895 11.039 101.078 11.2002 101.554 10.977V18.107C101.554 18.5204 101.621 18.7787 101.754 18.882C101.886 18.9854 102.212 19.0391 102.73 19.0432H103.129V19.75L98.3499 19.7376ZM99.557 7.99174C99.5554 7.86304 99.5796 7.73531 99.6282 7.61608C99.6769 7.49685 99.749 7.38854 99.8404 7.29753C99.9317 7.20652 100.04 7.13466 100.16 7.08617C100.28 7.03769 100.408 7.01357 100.537 7.01523C100.667 7.01339 100.795 7.03771 100.915 7.08673C101.035 7.13575 101.143 7.20845 101.234 7.30043C101.328 7.38911 101.403 7.49638 101.453 7.6154C101.504 7.73442 101.529 7.86259 101.526 7.99174C101.529 8.12337 101.506 8.25423 101.456 8.37647C101.407 8.49871 101.334 8.60979 101.241 8.70303C101.147 8.79628 101.036 8.86976 100.914 8.91907C100.791 8.96837 100.66 8.99248 100.528 8.98994C100.398 8.99326 100.269 8.96962 100.149 8.92051C100.029 8.87141 99.9207 8.79792 99.8308 8.70474C99.7386 8.61094 99.6667 8.49924 99.6196 8.37659C99.5725 8.25393 99.5512 8.12293 99.557 7.99174Z" fill="white"/>
<path d="M110.446 17.8405L110.944 18.3706C110.509 18.8784 109.981 19.2992 109.388 19.6106C108.831 19.8754 108.22 20.0081 107.602 19.9981C107.019 20.0212 106.438 19.921 105.896 19.7041C105.354 19.4871 104.865 19.1584 104.46 18.7395C103.638 17.8428 103.206 16.6577 103.259 15.4442C103.236 14.8474 103.334 14.2521 103.548 13.6942C103.761 13.1363 104.087 12.6275 104.504 12.1985C104.926 11.7829 105.43 11.4583 105.984 11.245C106.538 11.0317 107.13 10.9341 107.724 10.9585C108.564 10.9245 109.394 11.1555 110.094 11.6188C110.375 11.7904 110.608 12.0298 110.771 12.3148C110.934 12.5998 111.023 12.9213 111.028 13.2494C111.045 13.593 110.934 13.9308 110.717 14.198C110.615 14.3137 110.489 14.4052 110.348 14.4658C110.206 14.5265 110.052 14.5546 109.898 14.5483C109.765 14.5547 109.631 14.5341 109.505 14.4877C109.38 14.4414 109.265 14.3702 109.167 14.2786C109.075 14.1844 109.003 14.0722 108.955 13.949C108.908 13.8258 108.887 13.6942 108.894 13.5625C108.897 13.3029 108.976 13.0499 109.121 12.834C109.211 12.7006 109.28 12.5542 109.326 12.4C109.326 12.1933 109.185 12.0177 108.903 11.873C108.581 11.7216 108.229 11.6483 107.873 11.6591C107.467 11.6484 107.064 11.7359 106.699 11.914C106.333 12.0922 106.017 12.3557 105.776 12.6821C105.215 13.4668 104.936 14.4168 104.983 15.3791C104.983 16.5013 105.242 17.391 105.761 18.0482C106.008 18.3684 106.329 18.625 106.697 18.7965C107.064 18.9679 107.468 19.0494 107.873 19.034C108.313 19.0394 108.748 18.9484 109.149 18.7674C109.628 18.5292 110.066 18.2162 110.446 17.8405Z" fill="white"/>
</g>
<defs>
<clipPath id="clip0">
<rect width="111" height="31" fill="white"/>
</clipPath>
</defs>
</svg>
