<svg width="124" height="23" viewBox="0 0 124 23" fill="none" xmlns="http://www.w3.org/2000/svg">
<path d="M7.49663 4.79138C5.33658 4.79138 3.47503 5.70905 2.38392 7.32253V4.98903H0V22.2916H2.38392V14.8292C3.22696 16.4084 5.18734 17.4249 7.59546 17.4249C11.5929 17.4249 14.4971 14.9442 14.4971 11.1465C14.4971 7.27211 11.5929 4.79138 7.49663 4.79138ZM7.24856 15.6138C4.43707 15.6138 2.38392 13.8511 2.38392 11.1465C2.38392 8.38944 4.43707 6.65092 7.24856 6.65092C10.06 6.65092 12.1132 8.43785 12.1132 11.1445C12.1132 13.8511 10.054 15.6138 7.24856 15.6138Z" fill="white"/>
<path d="M21.994 4.79138C18.047 4.79138 15.2416 7.41329 15.2416 11.1707C15.2416 14.9281 18.0954 17.4229 22.4155 17.4229C24.3974 17.4673 26.3512 16.9491 28.0506 15.9284L27.1309 14.1899C25.7413 15.0592 24.1782 15.4323 22.4155 15.4323C19.6363 15.4323 17.922 14.0669 17.7768 11.7576H28.5266C28.573 11.3957 28.5979 11.0313 28.6012 10.6665C28.5972 7.5464 26.4613 4.79138 21.994 4.79138ZM26.1386 10.1784H17.7727C17.9744 8.11717 19.7089 6.72756 22.0686 6.72756C24.9225 6.72756 26.1628 8.36524 26.1628 9.87989C26.1649 9.97996 26.1568 10.08 26.1386 10.1784Z" fill="white"/>
<path d="M36.763 4.79131C35.0507 4.79131 33.2617 5.61015 32.3945 7.07438V4.98896H29.9622V17.2272H32.3683V10.6845C32.3683 7.97793 34.3549 6.88681 36.3657 6.88681C36.997 6.88212 37.6225 7.00777 38.203 7.2559L39.3687 5.37014C38.561 4.96576 37.666 4.76693 36.763 4.79131Z" fill="white"/>
<path d="M41.4763 8.26434C41.4763 7.19742 42.7167 6.60044 44.431 6.60044C46.1107 6.56391 47.7449 7.14767 49.0214 8.24014L50.413 6.92313C49.2715 5.7816 47.3595 4.78931 44.6045 4.78931C41.7244 4.78931 39.2417 6.02967 39.2417 8.48821C39.2417 13.4033 48.5192 10.9205 48.5192 13.7744C48.5192 14.8917 47.3091 15.6117 45.0441 15.6117C42.6864 15.6117 40.8491 14.7667 39.8326 13.4759L38.2191 14.686C39.3102 16.2248 41.7688 17.4148 44.9211 17.4148C48.5696 17.4148 50.8789 15.8013 50.8789 13.4436C50.8849 8.34098 41.4763 10.7491 41.4763 8.26434Z" fill="white"/>
<path d="M54.5336 4.98877H52.1013V17.227H54.5336V4.98877Z" fill="white"/>
<path d="M72.3059 4.79138C70.3698 4.79138 68.5324 5.46098 67.4917 7.61497C66.7455 5.52955 65.0836 4.79138 63.0547 4.79138C61.2939 4.79138 59.6058 5.43677 58.7366 7.1995V4.98097H56.4454V17.2273H58.8515V10.7976C58.8515 8.76256 59.6724 6.65293 62.4819 6.65293C64.5189 6.65293 65.6604 7.84489 65.6604 10.2026V17.2273H68.0423V10.7976C68.0423 8.71214 68.8128 6.65293 71.6182 6.65293C74.0505 6.65293 74.8452 8.31482 74.8452 10.4002V17.2273H77.2775V9.76493C77.2714 7.32253 75.9564 4.79138 72.3059 4.79138Z" fill="white"/>
<path d="M103.16 4.79138C98.8899 4.79138 95.9352 7.27211 95.9352 11.0961C95.9352 14.92 98.9383 17.4249 103.16 17.4249C107.381 17.4249 110.408 14.92 110.408 11.088C110.408 7.25597 107.453 4.79138 103.16 4.79138ZM103.16 15.4403C100.336 15.4403 98.3191 13.7522 98.3191 11.0961C98.3191 8.43986 100.304 6.77596 103.16 6.77596C106.015 6.77596 108.048 8.43986 108.048 11.088C108.048 13.7361 106.013 15.4403 103.16 15.4403Z" fill="white"/>
<path d="M118.772 4.79138C116.588 4.79138 114.975 5.65863 114.134 7.27211V4.98903H111.734V17.2273H114.142V11.1465C114.142 8.09296 115.656 6.65293 118.163 6.65293C120.396 6.65293 121.592 7.84489 121.592 10.376V17.2333H124V9.45837C123.986 6.37864 121.951 4.79138 118.772 4.79138Z" fill="white"/>
<path d="M76.2518 5.03788V4.98303H76.1807L76.2518 5.03788Z" fill="white"/>
<path d="M89.8285 4.79138C87.8923 4.79138 86.055 5.46098 85.0143 7.61497C84.268 5.52955 82.6062 4.79138 80.5772 4.79138C79.3005 4.79138 78.0642 5.13223 77.1486 5.99141C77.432 6.38476 77.6632 6.81322 77.8363 7.26606C78.4776 6.84011 79.2373 6.62829 80.0064 6.661C82.0435 6.661 83.185 7.85296 83.185 10.2107V17.2273H85.5669V10.7976C85.5588 8.71214 86.3212 6.65092 89.1448 6.65092C91.5771 6.65092 92.3717 8.3128 92.3717 10.3982V17.2273H94.792V9.76493C94.792 7.32253 93.479 4.79138 89.8285 4.79138Z" fill="white"/>
<path d="M102.49 2.88336C102.835 2.24761 103.301 1.68591 103.862 1.23034C104.423 0.774759 105.069 0.434235 105.762 0.228215C106.455 0.0221956 107.182 -0.0452843 107.901 0.0296303C108.62 0.104545 109.317 0.320386 109.953 0.664826L112.183 1.87494C111.098 3.89178 109.215 4.17818 107.414 3.59127C105.827 3.05846 104.157 2.81593 102.484 2.87529L102.49 2.88336Z" fill="white"/>
</svg>
