<svg width="20" height="15" viewBox="0 0 20 15" fill="none" xmlns="http://www.w3.org/2000/svg">
<path d="M0.221591 15V10.4659C0.221591 9.20644 0.466856 7.92708 0.957387 6.62784C1.46117 5.3286 2.1108 4.12216 2.90625 3.00852C3.7017 1.88163 4.53693 0.960227 5.41193 0.244318L9.5483 2.51136C8.83239 3.67803 8.26231 4.8911 7.83807 6.15057C7.41383 7.41004 7.20833 8.84185 7.22159 10.446V15H0.221591ZM10.2045 15V10.4659C10.2045 9.20644 10.4498 7.92708 10.9403 6.62784C11.4441 5.3286 12.0938 4.12216 12.8892 3.00852C13.6847 1.88163 14.5199 0.960227 15.3949 0.244318L19.5312 2.51136C18.8153 3.67803 18.2453 4.8911 17.821 6.15057C17.3968 7.41004 17.1913 8.84185 17.2045 10.446V15H10.2045Z" fill="#2ECC71"/>
</svg>
